<?xml version="1.0" encoding="utf-8"?>
<!-- Generator: Adobe Illustrator 25.2.1, SVG Export Plug-In . SVG Version: 6.00 Build 0)  -->
<svg version="1.1" id="visual" xmlns="http://www.w3.org/2000/svg" xmlns:xlink="http://www.w3.org/1999/xlink" x="0px" y="0px"
	 viewBox="0 0 1920 172.5" style="enable-background:new 0 0 1920 172.5;" xml:space="preserve">
<style type="text/css">
	.st0{fill:#F1C40F;}
</style>
<path class="st0" d="M0,83.5l20-1c20-1,60-3,100-13.2s80-28.5,120-37.8s80-9.7,120-14.3s80-13.7,120-4.4s80,37,120,50.5
	s80,12.9,120,7.7s80-14.8,120-23.7s80-16.8,120-27.1s80-23,120-19.7s80,22.7,120,35.2s80,18.1,120,9.3s80-32.2,120-28.2
	s80,35.4,120,54.9s80,27.1,120,17.3s80-37.2,120-41.8s80,13.3,100,22.3l20,9v94H0V83.5z"/>
</svg>
